<svg width="50" height="50" viewBox="0 0 50 50" fill="none" xmlns="http://www.w3.org/2000/svg">
<path fill-rule="evenodd" clip-rule="evenodd" d="M3.80859 0.139551C2.06309 0.624316 0.600098 2.10391 0.13252 3.85742C0.0324219 4.23281 0.00205078 5.46504 0.00117188 9.18584L0 14.026L0.277734 14.292C0.633594 14.633 1.14023 14.7203 1.5457 14.5106C2.15361 14.1963 2.14844 14.2419 2.14844 9.23701C2.14844 4.82578 2.15449 4.67861 2.35879 4.13271C2.64258 3.37412 3.37412 2.64258 4.13271 2.35879C4.67861 2.15449 4.82578 2.14844 9.23701 2.14844C14.2419 2.14844 14.1963 2.15361 14.5106 1.5457C14.7203 1.14023 14.633 0.633594 14.292 0.277734L14.026 0L9.13701 0.00869141C5.54941 0.0151367 4.13105 0.0499023 3.80859 0.139551ZM35.708 0.277734C35.367 0.633594 35.2797 1.14023 35.4894 1.5457C35.8037 2.15361 35.7581 2.14844 40.763 2.14844C45.1742 2.14844 45.3214 2.15449 45.8673 2.35879C46.6259 2.64258 47.3574 3.37412 47.6412 4.13271C47.8455 4.67861 47.8516 4.82578 47.8516 9.23701C47.8516 14.2419 47.8464 14.1963 48.4543 14.5106C48.8598 14.7203 49.3664 14.633 49.7223 14.292L50 14.026L49.9988 9.18584C49.9976 3.95068 49.9931 3.89736 49.4536 2.7832C49.0767 2.00469 47.9953 0.92334 47.2168 0.546387C46.1026 0.00693356 46.0493 0.00244141 40.8142 0.00117188L35.974 0L35.708 0.277734ZM12.6905 10.4836C11.8166 10.7212 11.0127 11.42 10.6091 12.2928C10.4066 12.7307 10.3995 12.8826 10.3715 17.3761C10.3406 22.3137 10.3467 22.3869 10.8174 22.7572C11.2927 23.1311 12.3269 22.8678 12.4487 22.3419C12.4771 22.2193 12.5112 20.1338 12.5246 17.7072C12.5482 13.4018 12.5538 13.2887 12.7533 13.0197C12.8657 12.8682 13.1074 12.6917 13.2904 12.6275C13.77 12.4596 36.23 12.4596 36.7096 12.6275C36.8926 12.6917 37.1343 12.8682 37.2467 13.0197C37.4462 13.2887 37.4518 13.4018 37.4754 17.7072C37.4888 20.1338 37.5229 22.2193 37.5513 22.3419C37.6731 22.8678 38.7073 23.1311 39.1826 22.7572C39.6533 22.3869 39.6594 22.3137 39.6285 17.3761C39.6004 12.8666 39.594 12.732 39.3886 12.2875C39.0897 11.6408 38.4496 10.9866 37.8068 10.6709L37.2559 10.4004L25.1953 10.3816C15.8715 10.3671 13.034 10.3902 12.6905 10.4836ZM6.93359 29.1699C6.85303 29.1994 6.66631 29.3362 6.51855 29.4738C6.29629 29.6809 6.25 29.8063 6.25 30.2016C6.25 30.5991 6.29775 30.7269 6.53545 30.9646L6.8209 31.25H8.57988H10.3389L10.3696 34.2529L10.4004 37.2559L10.6709 37.8068C10.9866 38.4496 11.6408 39.0897 12.2875 39.3886L12.7441 39.5996H25H37.2559L37.8068 39.3291C38.4496 39.0134 39.0897 38.3592 39.3886 37.7125C39.5879 37.2812 39.6014 37.0891 39.6304 34.2529L39.6611 31.25H41.4201H43.1791L43.4646 30.9646C43.7022 30.7269 43.75 30.5991 43.75 30.2016C43.75 29.7962 43.7048 29.6807 43.4506 29.4372L43.1513 29.1504L25.1156 29.1333C15.1961 29.1238 7.01416 29.1403 6.93359 29.1699ZM37.4813 33.9774C37.4526 36.5676 37.4409 36.7188 37.2467 36.9804C37.1343 37.1319 36.8926 37.3083 36.7096 37.3725C36.23 37.5404 13.77 37.5404 13.2904 37.3725C13.1074 37.3083 12.8657 37.1319 12.7533 36.9804C12.5591 36.7188 12.5474 36.5676 12.5188 33.9774L12.4887 31.25H25H37.5113L37.4813 33.9774ZM0.683594 35.4203C0.603027 35.4496 0.416309 35.5862 0.268555 35.7238L0 35.974L0.00117188 40.8142C0.00205078 44.535 0.0324219 45.7672 0.13252 46.1426C0.605371 47.9161 2.08057 49.3911 3.85742 49.8669C4.23398 49.9678 5.45342 49.998 9.18584 49.9988L14.026 50L14.292 49.7223C14.633 49.3664 14.7203 48.8598 14.5106 48.4543C14.1963 47.8464 14.2419 47.8516 9.23701 47.8516C4.82578 47.8516 4.67861 47.8455 4.13271 47.6412C3.37412 47.3574 2.64258 46.6259 2.35879 45.8673C2.15449 45.3214 2.14844 45.1742 2.14844 40.763C2.14844 36.8939 2.12646 36.1783 2.00029 35.9343C1.7667 35.4825 1.16162 35.2464 0.683594 35.4203ZM48.4144 35.4991C47.8503 35.8163 47.8516 35.8049 47.8516 40.763C47.8516 45.1742 47.8455 45.3214 47.6412 45.8673C47.3574 46.6259 46.6259 47.3574 45.8673 47.6412C45.3214 47.8455 45.1742 47.8516 40.763 47.8516C35.7581 47.8516 35.8037 47.8464 35.4894 48.4543C35.2797 48.8598 35.367 49.3664 35.708 49.7223L35.974 50H40.8458H45.7175L46.4565 49.752C48.1537 49.1822 49.4121 47.8506 49.8675 46.1426C49.9676 45.7672 49.998 44.535 49.9988 40.8142L50 35.974L49.718 35.7038C49.3725 35.3729 48.799 35.2828 48.4144 35.4991Z" fill="#2A00A2"/>
</svg>
